<?xml version="1.0" encoding="UTF-8" standalone="no"?>
<!-- Created with Inkscape (http://www.inkscape.org/) -->

<svg
   width="113.7662mm"
   height="24.253389mm"
   viewBox="0 0 113.7662 24.253389"
   version="1.1"
   id="svg1"
   inkscape:version="1.4.2 (ebf0e940, 2025-05-08)"
   sodipodi:docname="drawing.svg"
   xmlns:inkscape="http://www.inkscape.org/namespaces/inkscape"
   xmlns:sodipodi="http://sodipodi.sourceforge.net/DTD/sodipodi-0.dtd"
   xmlns="http://www.w3.org/2000/svg"
   xmlns:svg="http://www.w3.org/2000/svg">
  <sodipodi:namedview
     id="namedview1"
     pagecolor="#505050"
     bordercolor="#eeeeee"
     borderopacity="1"
     inkscape:showpageshadow="0"
     inkscape:pageopacity="0"
     inkscape:pagecheckerboard="0"
     inkscape:deskcolor="#505050"
     inkscape:document-units="mm"
     showguides="true"
     inkscape:zoom="2.4401591"
     inkscape:cx="-988.46013"
     inkscape:cy="-230.92756"
     inkscape:window-width="1440"
     inkscape:window-height="900"
     inkscape:window-x="0"
     inkscape:window-y="0"
     inkscape:window-maximized="0"
     inkscape:current-layer="layer1">
    <sodipodi:guide
       position="159.44377,-103.69366"
       orientation="0,-1"
       id="guide4"
       inkscape:locked="false" />
    <sodipodi:guide
       position="156.58003,-91.895205"
       orientation="0,-1"
       id="guide7"
       inkscape:locked="false" />
    <sodipodi:guide
       position="66.055233,-38.252524"
       orientation="0,-1"
       id="guide1"
       inkscape:locked="false" />
    <inkscape:page
       x="0"
       y="0"
       width="113.7662"
       height="24.253389"
       id="page2"
       margin="0"
       bleed="0" />
  </sodipodi:namedview>
  <defs
     id="defs1" />
  <g
     inkscape:groupmode="layer"
     id="layer2"
     inkscape:label="Logo"
     transform="translate(335.76565,125.01422)">
    <g
       id="g5"
       inkscape:label="Logo">
      <path
         d="m -267.25365,-105.76644 c -1.32293,0 -2.48969,-0.2848 -3.50028,-0.8544 -0.99221,-0.58797 -1.76392,-1.40563 -2.31516,-2.45296 -0.53284,-1.0657 -0.79928,-2.28759 -0.79928,-3.66565 0,-1.41482 0.26644,-2.64589 0.79928,-3.69323 0.55124,-1.04732 1.30457,-1.85578 2.26003,-2.42539 0.97383,-0.58798 2.08548,-0.88196 3.33493,-0.88196 1.34132,0 2.48052,0.27561 3.4176,0.82683 0.93709,0.55124 1.64451,1.30457 2.12223,2.26003 0.47772,0.95546 0.40171,1.69481 0.3668,2.94376 -0.0794,2.84029 -7.82746,1.71411 -10.20752,1.71411 l 0.16667,-1.98442 c 1.73167,0.46976 4.87344,0.89043 8.24084,0 l -0.60635,0.7166 c 0.39399,-1.22881 -0.30318,-2.29678 -0.90953,-2.97663 -0.60635,-0.67985 -1.46993,-1.01976 -2.59077,-1.01976 -1.0657,0 -1.87686,0.38113 -2.53563,1.04733 -0.71205,0.72005 -0.75205,1.91451 -0.87648,3.12958 l -0.0606,0.59119 c -0.0918,0.89565 0.14692,1.66288 0.44097,2.28759 0.31236,0.62474 0.75333,1.10246 1.32295,1.4332 0.5696,0.31236 1.22187,0.46854 1.95685,0.46854 0.7901,0 1.4332,-0.11949 1.9293,-0.35829 0.51449,-0.23888 0.9279,-0.53286 1.24025,-0.88196 0.31236,-0.36749 0.55124,-0.73498 0.7166,-1.10246 l 1.90174,2.01197 c -0.49611,0.75334 -1.22189,1.42401 -2.17735,2.01198 -0.93709,0.5696 -2.14979,0.8544 -3.6381,0.8544 z"
         style="font-weight:bold;font-size:12.7px;font-family:'Cabinet Grotesk Variable';-inkscape-font-specification:'Cabinet Grotesk Variable Bold';text-align:justify;letter-spacing:0px;word-spacing:0px;fill:#008000;stroke-width:0.574194"
         id="path1" />
      <path
         id="path5-7"
         style="fill:#008000;stroke-width:0.837622"
         d="m -258.51544,-120.26894 c 0.10888,0.0785 -0.50677,0.55496 -0.31832,1.17608 0.10387,0.34434 1.24875,1.07333 1.06573,1.06855 -0.41345,-0.0115 -0.57022,-0.25531 -2.58562,0.0156 -1.77395,0.23835 -3.26227,-1.32071 -3.29334,-3.02289 -0.0195,-1.04016 0.0901,-2.07446 0.35871,-2.97016 0.23158,-0.77254 0.56546,-1.15975 0.60251,-0.96076 0.0745,0.39998 0.56403,0.84026 0.9697,1.24998 0.4066,0.41056 2.18151,0.96443 2.20067,1.51132 0.0328,0.95767 -1.81608,1.62786 -1.2719,1.55766 1.80509,-0.2329 1.85941,0.0774 2.27186,0.37475 z"
         sodipodi:nodetypes="ssssssssssss"
         inkscape:transform-center-x="-0.47543788"
         inkscape:transform-center-y="-0.71429314" />
      <path
         style="font-weight:bold;font-size:12.7px;font-family:'Cabinet Grotesk Variable';-inkscape-font-specification:'Cabinet Grotesk Variable Bold';text-align:justify;letter-spacing:0px;word-spacing:0px;fill:#008000;stroke-width:0.574194"
         d="m -327.52485,-105.88722 h -6.69741 v -2.75613 h 6.22887 c 1.26782,0 2.19573,-0.21131 2.78368,-0.63392 0.60636,-0.44097 0.90953,-1.13001 0.90953,-2.0671 0,-0.6431 -0.15625,-1.15757 -0.46854,-1.54343 -0.29399,-0.38585 -0.70741,-0.67066 -1.24027,-0.85441 -0.53283,-0.18374 -1.16675,-0.27561 -1.90172,-0.27561 h -6.31155 v -2.64588 h 6.00838 c 0.62473,0 1.16675,-0.0735 1.62611,-0.22049 0.45937,-0.14699 0.81766,-0.39504 1.07489,-0.74415 0.27562,-0.36749 0.41342,-0.8636 0.41342,-1.48832 0,-0.62473 -0.13783,-1.11163 -0.41342,-1.46076 -0.27561,-0.36747 -0.65228,-0.62471 -1.13001,-0.77171 -0.47772,-0.16536 -1.03815,-0.24805 -1.68124,-0.24805 h -5.89813 v -2.75614 h 6.83521 c 1.26783,0 2.30597,0.20211 3.11444,0.60635 0.80846,0.40424 1.40563,0.96466 1.79148,1.68124 0.40424,0.69823 0.60636,1.5067 0.60636,2.42541 0,0.62471 -0.11935,1.18513 -0.35831,1.68124 -0.22048,0.47772 -0.55122,0.89114 -0.99221,1.24025 -0.42259,0.34912 -0.93708,0.63392 -1.54343,0.85441 -0.60635,0.20211 -1.2862,0.33992 -2.03953,0.41342 1.4148,0.0918 2.53564,0.34911 3.36248,0.77172 0.84521,0.4226 1.44237,0.97382 1.79147,1.65367 0.36749,0.66147 0.55124,1.40563 0.55124,2.23248 0,1.10244 -0.25723,2.02115 -0.77171,2.75613 -0.51449,0.71658 -1.24944,1.25863 -2.20492,1.62611 -0.95547,0.34911 -2.10384,0.52367 -3.44516,0.52367 z m -5.1264,0 h -3.11444 v -18.4661 h 3.11444 z m 19.98193,0.27561 c -1.2862,0 -2.42539,-0.2848 -3.4176,-0.8544 -0.97382,-0.58797 -1.73637,-1.40563 -2.28759,-2.45295 -0.53285,-1.06571 -0.79928,-2.28759 -0.79928,-3.66566 0,-1.41481 0.26643,-2.6367 0.79928,-3.66566 0.55122,-1.04734 1.31377,-1.86498 2.28759,-2.45297 0.99221,-0.58797 2.1314,-0.88196 3.4176,-0.88196 1.30457,0 2.44379,0.29399 3.41761,0.88196 0.99221,0.58799 1.76393,1.40563 2.31515,2.45297 0.55123,1.02896 0.82684,2.25085 0.82684,3.66566 0,1.37807 -0.27561,2.59995 -0.82684,3.66566 -0.55122,1.04732 -1.32294,1.86498 -2.31515,2.45295 -0.97382,0.5696 -2.11304,0.8544 -3.41761,0.8544 z m 0.0275,-2.5632 c 0.67985,0 1.26782,-0.15618 1.76392,-0.46854 0.51449,-0.31236 0.90953,-0.7901 1.18514,-1.4332 0.29399,-0.66147 0.44099,-1.49749 0.44099,-2.50807 0,-1.04734 -0.14693,-1.89255 -0.44099,-2.53565 -0.27561,-0.6431 -0.67065,-1.12082 -1.18514,-1.43318 -0.4961,-0.31236 -1.08407,-0.46856 -1.76392,-0.46856 -0.64309,0 -1.22189,0.1562 -1.73636,0.46856 -0.51448,0.31236 -0.91871,0.79008 -1.2127,1.43318 -0.27561,0.6431 -0.41342,1.48831 -0.41342,2.53565 0,1.01058 0.13782,1.8466 0.41342,2.50807 0.29399,0.6431 0.69822,1.12084 1.2127,1.4332 0.51447,0.31236 1.09327,0.46854 1.73636,0.46854 z m 14.16652,2.5632 c -1.10245,0 -2.05791,-0.2848 -2.86637,-0.8544 -0.80847,-0.5696 -1.44237,-1.37806 -1.90174,-2.4254 -0.44097,-1.04733 -0.66147,-2.28759 -0.66147,-3.72078 0,-1.45156 0.2205,-2.69183 0.66147,-3.72077 0.45937,-1.04734 1.08408,-1.8558 1.87417,-2.4254 0.80846,-0.56961 1.74554,-0.8544 2.81126,-0.8544 1.04733,0 1.87417,0.23886 2.48052,0.71658 0.62474,0.45936 1.08408,1.06571 1.37807,1.81906 0.31234,0.75334 0.51448,1.54343 0.60635,2.37027 l -0.16538,1.26782 c 0,-0.73497 -0.11032,-1.37807 -0.33072,-1.92929 -0.20206,-0.55123 -0.53286,-0.97384 -0.99221,-1.26781 -0.44099,-0.31238 -1.01978,-0.46856 -1.73637,-0.46856 -0.97383,0 -1.79149,0.36749 -2.45296,1.10246 -0.64309,0.73496 -0.96464,1.86498 -0.96464,3.39004 0,1.50668 0.32155,2.6367 0.96464,3.39005 0.66147,0.73497 1.47913,1.10246 2.45296,1.10246 0.71659,0 1.29538,-0.147 1.73637,-0.44099 0.45935,-0.31236 0.79009,-0.74415 0.99221,-1.29538 0.22048,-0.55123 0.33072,-1.19433 0.33072,-1.92929 l 0.16538,1.26782 c -0.0918,0.82683 -0.28479,1.61692 -0.5788,2.37027 -0.29399,0.73497 -0.74415,1.34132 -1.3505,1.81904 -0.60635,0.47774 -1.42401,0.7166 -2.45296,0.7166 z m 7.33132,4.85079 h -3.11444 v -18.54876 h 3.11444 z m 7.35889,-4.85079 c -0.86358,0 -1.61694,-0.16536 -2.26002,-0.49611 -0.62474,-0.3491 -1.10246,-0.84521 -1.4332,-1.48831 -0.33073,-0.66147 -0.4961,-1.45156 -0.4961,-2.37027 v -9.34328 h 3.08687 v 8.4062 c 0,0.82683 0.18382,1.4975 0.55123,2.01197 0.36748,0.51448 1.05651,0.77173 2.0671,0.77173 0.75333,0 1.3505,-0.147 1.79149,-0.44099 0.44097,-0.31236 0.75333,-0.74415 0.93708,-1.29538 0.20204,-0.55123 0.30317,-1.19433 0.30317,-1.92929 l 0.16537,1.26782 c -0.0918,0.82683 -0.31235,1.61692 -0.66147,2.37027 -0.34911,0.73497 -0.8544,1.34132 -1.51588,1.81904 -0.66147,0.47774 -1.50668,0.7166 -2.53564,0.7166 z m 7.66206,-0.27561 h -3.11444 v -13.42236 h 3.11444 z m 22.49002,0.30317 c -0.84523,0 -1.57099,-0.16536 -2.17735,-0.4961 -0.58797,-0.33074 -1.03815,-0.7901 -1.3505,-1.37807 -0.31236,-0.60635 -0.46855,-1.30456 -0.46855,-2.09466 v -12.91762 l 3.08687,-1.95686 v 14.13033 c 0,0.71659 0.14693,1.20351 0.44099,1.46075 0.31235,0.23886 0.69822,0.35829 1.15757,0.35829 0.51449,0 0.95548,-0.17455 1.32295,-0.52367 0.38586,-0.34911 0.67985,-0.71658 0.88196,-1.10244 l 0.96465,2.75613 c -0.294,0.42261 -0.77172,0.82683 -1.43319,1.2127 -0.6431,0.36748 -1.45157,0.55122 -2.4254,0.55122 z m 2.89118,-9.52396 -6.57956,-0.0431 v -1.99442 l 6.57956,0.0431 z m 8.13337,9.4964 c -1.32293,0 -2.48969,-0.2848 -3.50028,-0.8544 -0.99221,-0.58797 -1.76394,-1.40563 -2.31516,-2.45295 -0.53283,-1.06571 -0.79928,-2.28759 -0.79928,-3.66566 0,-1.41481 0.26645,-2.6459 0.79928,-3.69322 0.55122,-1.04733 1.30457,-1.8558 2.26003,-2.42541 0.97383,-0.58797 2.08548,-0.88196 3.33492,-0.88196 1.34133,0 2.48052,0.27563 3.41761,0.82685 0.93709,0.55122 1.64451,1.30456 2.12223,2.26002 0.47772,0.95546 0.40172,1.69481 0.3668,2.94376 -0.0794,2.84029 -7.82746,1.71411 -10.20752,1.71411 l 0.16667,-1.98442 c 1.73167,0.46976 4.87344,0.89043 8.24082,0 l -0.60633,0.7166 c 0.39399,-1.22881 -0.30318,-2.29678 -0.90953,-2.97662 -0.60635,-0.67985 -1.46993,-1.01978 -2.59077,-1.01978 -1.0657,0 -1.87686,0.38115 -2.53563,1.04734 -0.71205,0.72004 -0.75205,1.91452 -0.87648,3.12958 l -0.0606,0.59119 c -0.0918,0.89565 0.14691,1.66288 0.44097,2.2876 0.31236,0.62472 0.75333,1.10245 1.32295,1.43319 0.5696,0.31236 1.22187,0.46854 1.95685,0.46854 0.7901,0 1.4332,-0.11949 1.9293,-0.3583 0.51447,-0.23887 0.9279,-0.53284 1.24026,-0.88197 0.31235,-0.36747 0.55122,-0.73496 0.71659,-1.10245 l 1.90174,2.01198 c -0.49611,0.75335 -1.22189,1.42401 -2.17735,2.01198 -0.93709,0.5696 -2.14979,0.8544 -3.6381,0.8544 z m 20.60897,-0.27561 h -1.92928 c -0.45937,0 -0.88196,-0.0827 -1.26782,-0.24805 -0.38586,-0.16537 -0.69822,-0.4318 -0.93709,-0.79928 -0.23888,-0.38587 -0.35829,-0.90034 -0.35829,-1.54344 v -5.1264 -0.41343 c 0,-0.84521 -0.17449,-1.52506 -0.52367,-2.03953 -0.33074,-0.53285 -1.01978,-0.79928 -2.0671,-0.79928 -0.90034,0 -1.69043,0.22968 -2.37027,0.68903 -0.67985,0.45936 -1.21271,1.04733 -1.59856,1.76393 l -1.84661,-2.20491 c 0.34911,-0.47773 0.80845,-0.93708 1.37807,-1.37807 0.58797,-0.45935 1.277,-0.83603 2.0671,-1.13001 0.79009,-0.31237 1.68124,-0.46855 2.67344,-0.46855 1.65368,0 2.93068,0.45936 3.83103,1.37807 0.91871,0.90034 1.37806,2.17734 1.37806,3.83103 v 5.04372 c 0,0.294 0.0552,0.50529 0.16538,0.63391 0.12866,0.11032 0.31234,0.16537 0.55122,0.16537 h 0.85439 z m -8.98499,0.27561 c -1.10245,0 -1.97523,-0.2848 -2.61831,-0.8544 -0.62474,-0.5696 -0.9371,-1.34131 -0.9371,-2.31515 0,-0.95546 0.31236,-1.73636 0.9371,-2.34271 0.62471,-0.62474 1.48831,-1.14839 2.59075,-1.571 l 4.90592,-2.0671 0.3583,1.95686 -4.16177,1.87417 c -0.58797,0.25724 -1.01059,0.51447 -1.26781,0.77171 -0.23888,0.25724 -0.3583,0.56042 -0.3583,0.90953 0,0.38585 0.12866,0.68903 0.38586,0.90952 0.27561,0.2205 0.69822,0.33073 1.26782,0.33073 0.51449,0 0.97383,-0.0735 1.37806,-0.22048 0.42261,-0.147 0.7809,-0.34912 1.07489,-0.60635 0.31236,-0.27561 0.54206,-0.59717 0.68904,-0.96464 0.16537,-0.36749 0.24806,-0.78092 0.24806,-1.24027 l 0.0827,1.29538 c -0.11031,0.60635 -0.33991,1.23107 -0.68903,1.87417 -0.34912,0.6431 -0.84523,1.18514 -1.48831,1.62613 -0.62473,0.4226 -1.42401,0.6339 -2.39784,0.6339 z"
         id="text8"
         aria-label="Boquetea"
         sodipodi:nodetypes="sccscscssccsscsccsccsscsccccccsccscccccsccsccsccsccssccsccsscscsssscsccsccccccscscscccccsscccccsccsccssscccccsscccccsccsccscsccccsccccccccsccssssccccsssssccscccccscsscscscssccccscsscsccscsccccccscscccccscsc" />
    </g>
  </g>
</svg>
